<?xml version="1.0" standalone="no"?><!DOCTYPE svg PUBLIC "-//W3C//DTD SVG 1.1//EN" "http://www.w3.org/Graphics/SVG/1.1/DTD/svg11.dtd"><svg t="1519993242148" class="icon" style="" viewBox="0 0 1024 1024" version="1.1" xmlns="http://www.w3.org/2000/svg" p-id="3509" xmlns:xlink="http://www.w3.org/1999/xlink" width="200" height="200"><defs><style type="text/css"></style></defs><path d="M793.23136 511.98976c0.01024 3.42016-1.57696 6.61504-4.27008 8.69376L520.73472 726.89664c-1.96608 1.49504-4.32128 2.27328-6.66624 2.27328-2.32448 0-4.62848-0.72704-6.6048-2.21184-3.92192-2.94912-5.376-8.18176-3.584-12.7488l53.94432-136.5504-316.1088 0.01024c-6.03136-0.01024-10.9568-4.90496-10.94656-10.9568l0-109.4144c0-6.05184 4.90496-10.93632 10.9568-10.94656l316.1088 0-53.95456-136.54016c-1.78176-4.57728-0.32768-9.80992 3.61472-12.76928 3.92192-2.95936 9.34912-2.95936 13.25056 0.07168l268.2368 206.21312C791.6544 505.38496 793.23136 508.61056 793.23136 511.98976zM911.13472 512c0 220.07808-179.05664 399.13472-399.13472 399.13472S112.86528 732.07808 112.86528 512 291.92192 112.86528 512 112.86528C732.08832 112.86528 911.13472 291.92192 911.13472 512zM867.36896 512C867.35872 316.04736 707.9424 156.64128 512 156.64128c-195.95264 0-355.36896 159.41632-355.36896 355.35872 0 195.95264 159.40608 355.35872 355.36896 355.35872C707.9424 867.35872 867.36896 707.95264 867.36896 512z" p-id="3510" fill="#707070"></path></svg>